<svg xmlns="http://www.w3.org/2000/svg" width="693.075" height="178.887" viewBox="0 0 693.075 178.887">
  <g id="Grupo_1081" data-name="Grupo 1081" transform="translate(-2038 -958)">
    <g id="Grupo_1080" data-name="Grupo 1080" transform="translate(1963.593 1078.773)">
      <g id="Grupo_1077" data-name="Grupo 1077">
        <path id="Trazado_700" data-name="Trazado 700" d="M74.407-20.267l69.7.035-41.5,41.459,9.533,9.542,49.312-49.262-.03,58.661,13.489.007.035-69.7,41.458,41.5,9.543-9.533L176.687-46.871l58.661.029.007-13.488-69.7-.036,41.5-41.458-9.534-9.543L148.309-62.1l.029-58.661-13.488-.007-.035,69.7-41.459-41.5-9.543,9.533,49.262,49.312-58.661-.03Zm78.505-35.057A14.541,14.541,0,0,1,169.22-42.8a14.542,14.542,0,0,1-12.529,16.309,14.543,14.543,0,0,1-16.308-12.529A14.542,14.542,0,0,1,152.912-55.324Z" fill="#ececec"/>
        <g id="Grupo_1076" data-name="Grupo 1076">
          <g id="Grupo_1075" data-name="Grupo 1075">
            <path id="Trazado_701" data-name="Trazado 701" d="M289.668,25.658h.561l14.634-45.91h14.163L298.2,40.175H281.731L260.87-20.252h14.193Z" fill="#ececec"/>
          </g>
          <path id="Trazado_702" data-name="Trazado 702" d="M324.2-17.361a6.611,6.611,0,0,1,6.787-6.344,6.618,6.618,0,0,1,6.815,6.344,6.622,6.622,0,0,1-6.815,6.373A6.615,6.615,0,0,1,324.2-17.361Zm.472,12.216h12.57v45.32h-12.57Z" fill="#ececec"/>
          <path id="Trazado_703" data-name="Trazado 703" d="M344.76,17.574c0-15.579,8.409-23.31,18.352-23.31a13.353,13.353,0,0,1,12.894,8.2h.384V-20.252h12.54V40.175H376.537V32.917h-.531c-1.741,3.776-5.547,8-12.864,8C352.815,40.913,344.76,32.74,344.76,17.574Zm31.895-.059c0-8.085-3.422-13.248-9.53-13.248-6.226,0-9.53,5.4-9.53,13.248,0,7.907,3.363,13.4,9.53,13.4C373.174,30.91,376.655,25.6,376.655,17.515Z" fill="#ececec"/>
          <path id="Trazado_704" data-name="Trazado 704" d="M396.564,17.721c0-13.985,8.645-23.457,21.982-23.457,11.979,0,21.3,7.613,21.3,23.015v3.452H408.986v.03c0,6.756,3.983,10.917,10.268,10.917,4.19,0,7.435-1.8,8.7-5.252l11.625.767c-1.77,8.409-9.324,13.867-20.536,13.867C405.091,41.06,396.564,32.091,396.564,17.721Zm31.453-4.78a8.933,8.933,0,0,0-9.265-9.294,9.572,9.572,0,0,0-9.766,9.294Z" fill="#ececec"/>
          <path id="Trazado_705" data-name="Trazado 705" d="M445.388,17.692c0-14.045,8.557-23.428,22.307-23.428S490,3.647,490,17.692c0,13.956-8.557,23.368-22.306,23.368S445.388,31.648,445.388,17.692Zm31.837-.088c0-7.908-3.246-13.75-9.471-13.75-6.344,0-9.59,5.842-9.59,13.75s3.246,13.72,9.59,13.72C473.979,31.324,477.225,25.511,477.225,17.6Z" fill="#ececec"/>
          <path id="Trazado_706" data-name="Trazado 706" d="M497.074,45.486,508.7,43.922c1.033,2.745,3.836,5.164,9.383,5.164,5.459,0,9.442-2.419,9.442-8.645V32.149h-.531c-1.653,3.748-5.7,7.377-12.924,7.377-10.209,0-18.382-7.022-18.382-22.1C495.687,2,504.1-5.736,514.04-5.736a13.444,13.444,0,0,1,12.953,8.2h.472V-5.145h12.481V40.618c0,11.6-9.206,17.5-22.159,17.5C505.572,58.114,498.579,52.626,497.074,45.486Zm30.509-28.119c0-7.937-3.423-13.1-9.53-13.1-6.226,0-9.531,5.4-9.531,13.1,0,7.819,3.364,12.717,9.531,12.717C524.1,30.084,527.583,25.363,527.583,17.367Z" fill="#ececec"/>
          <path id="Trazado_707" data-name="Trazado 707" d="M549.144-5.145h12.185V2.762h.472c1.653-5.606,5.813-8.557,10.888-8.557a18.834,18.834,0,0,1,3.954.443V5.8a21.18,21.18,0,0,0-5.311-.678c-5.547,0-9.619,3.835-9.619,9.412v25.64H549.144Z" fill="#ececec"/>
          <path id="Trazado_708" data-name="Trazado 708" d="M578.88,27.517c0-10.12,8.055-13.13,17.024-13.956,7.879-.767,10.977-1.151,10.977-4.072V9.312c0-3.717-2.449-5.871-6.728-5.871-4.514,0-7.2,2.213-8.055,5.222l-11.625-.944c1.741-8.261,8.881-13.455,19.739-13.455,10.091,0,19.238,4.544,19.238,15.343V40.175H607.53V33.89h-.354c-2.213,4.22-6.551,7.141-13.248,7.141C585.283,41.031,578.88,36.487,578.88,27.517Zm28.089-3.54v-4.81c-1.505,1-5.99,1.652-8.734,2.036-4.425.62-7.347,2.36-7.347,5.9,0,3.452,2.774,5.252,6.639,5.252C603.045,32.356,606.969,28.727,606.969,23.977Z" fill="#ececec"/>
          <path id="Trazado_709" data-name="Trazado 709" d="M652.755,4.3h-9V40.175h-12.57V4.3h-6.4V-5.145h6.4V-8.421c0-9.854,6.344-14.664,14.871-14.664a33.113,33.113,0,0,1,8.881,1.239L652.725-12.4a13.967,13.967,0,0,0-4.042-.649c-3.688,0-4.927,1.8-4.927,4.868v3.04h9Z" fill="#ececec"/>
          <path id="Trazado_710" data-name="Trazado 710" d="M659.593-5.145h12.57v45.32h-12.57Zm8.055-19.268h11.625l-9,13.425h-8.881Z" fill="#ececec"/>
          <path id="Trazado_711" data-name="Trazado 711" d="M679.238,27.517c0-10.12,8.055-13.13,17.025-13.956,7.878-.767,10.976-1.151,10.976-4.072V9.312c0-3.717-2.449-5.871-6.728-5.871-4.514,0-7.2,2.213-8.055,5.222l-11.625-.944c1.741-8.261,8.881-13.455,19.739-13.455,10.091,0,19.238,4.544,19.238,15.343V40.175h-11.92V33.89h-.354c-2.213,4.22-6.55,7.141-13.248,7.141C685.641,41.031,679.238,36.487,679.238,27.517Zm28.089-3.54v-4.81c-1.505,1-5.989,1.652-8.734,2.036-4.425.62-7.346,2.36-7.346,5.9,0,3.452,2.773,5.252,6.638,5.252C703.4,32.356,707.327,28.727,707.327,23.977Z" fill="#ececec"/>
          <path id="Trazado_712" data-name="Trazado 712" d="M754.942,8.486c-.619-2.921-3.216-5.311-7.583-5.311-3.894,0-6.963,1.771-6.933,4.485-.03,2.184,1.534,3.629,5.753,4.544l8.2,1.652c8.792,1.8,13.071,5.724,13.1,12.274-.029,8.941-8.438,14.93-20.182,14.93-12.008,0-19.385-5.34-20.565-14.015L739.1,26.4c.767,3.688,3.747,5.606,8.232,5.606,4.4,0,7.317-1.918,7.376-4.6-.059-2.272-1.858-3.718-5.812-4.514l-7.849-1.564c-8.852-1.77-13.13-6.167-13.1-12.953-.03-8.733,7.612-14.1,19.208-14.1,11.448,0,18.175,5.164,19.3,13.514Z" fill="#ececec"/>
        </g>
      </g>
      <g id="Grupo_1079" data-name="Grupo 1079">
        <g id="Grupo_1078" data-name="Grupo 1078">
          <path id="Trazado_713" data-name="Trazado 713" d="M307.346-69.6c0-13.911,8.52-23.58,21.364-23.58,9.88,0,20.376,5.777,20.376,22.637v2.948H314.662c.34,9.7,6.236,14.973,14.788,14.973,5.712,0,10-2.358,11.856-7.074l7.04,1.887c-2.224,6.839-9.264,11.437-18.9,11.437C315.742-46.371,307.346-55.685,307.346-69.6Zm34.332-4.007c0-7.665-5.064-13.324-12.968-13.324-8.336,0-13.555,6.278-14.048,13.324Z" fill="#ececec"/>
          <path id="Trazado_714" data-name="Trazado 714" d="M354.688-60.166c0-10.376,9.6-12.232,18.4-13.324,8.644-1.06,12.224-.766,12.224-4.126v-.235c0-5.806-3.3-9.2-10-9.2-6.948,0-10.744,3.538-12.352,6.839l-6.916-2.358c3.7-8.254,11.856-10.612,19.02-10.612,6.052,0,17.536,1.651,17.536,16.035v29.829h-7.288v-6.131h-.368c-1.484,2.948-5.8,7.193-14.08,7.193C361.848-46.253,354.688-51.322,354.688-60.166ZM385.312-63.7V-70.07c-1.232,1.415-9.508,2.239-12.6,2.594-5.68.707-10.744,2.359-10.744,7.665,0,4.832,4.2,7.309,10,7.309C380.62-52.5,385.312-58.043,385.312-63.7Z" fill="#ececec"/>
          <path id="Trazado_715" data-name="Trazado 715" d="M400.429-69.717c0-13.793,8.52-23.462,21.364-23.462,10,0,17.536,5.659,18.772,14.148h-7.288c-1.112-4.126-4.94-7.9-11.36-7.9-8.523,0-14.2,6.721-14.2,16.978,0,10.494,5.556,17.331,14.2,17.331,5.68,0,10-2.948,11.36-7.9h7.288c-1.236,8.018-8.152,14.149-18.648,14.149C408.578-46.371,400.429-56.157,400.429-69.717Z" fill="#ececec"/>
          <path id="Trazado_716" data-name="Trazado 716" d="M468.512-86.695H458.388v26.41c0,5.9,3.087,6.839,6.3,6.839a14.745,14.745,0,0,0,3.211-.353l1.484,6.249a15.83,15.83,0,0,1-5.435.825c-6.176,0-12.844-3.773-12.844-11.673v-28.3h-7.164v-5.894H451.1v-10.847h7.288v10.847h10.124Z" fill="#ececec"/>
          <path id="Trazado_717" data-name="Trazado 717" d="M474.72-104.851a4.989,4.989,0,0,1,5.187-4.716,4.989,4.989,0,0,1,5.185,4.716,4.989,4.989,0,0,1-5.185,4.716A4.989,4.989,0,0,1,474.72-104.851Zm1.48,12.262h7.287v45.274H476.2Z" fill="#ececec"/>
          <path id="Trazado_718" data-name="Trazado 718" d="M514.749-47.315h-7.412L489.8-92.589h7.9L510.8-56.512h.492l13.092-36.077h7.9Z" fill="#ececec"/>
          <path id="Trazado_719" data-name="Trazado 719" d="M534.923-60.166c0-10.376,9.6-12.232,18.4-13.324,8.644-1.06,12.224-.766,12.224-4.126v-.235c0-5.806-3.3-9.2-10-9.2-6.948,0-10.744,3.538-12.352,6.839l-6.916-2.358c3.705-8.254,11.856-10.612,19.02-10.612,6.052,0,17.536,1.651,17.536,16.035v29.829h-7.288v-6.131h-.368c-1.484,2.948-5.8,7.193-14.08,7.193C542.083-46.253,534.923-51.322,534.923-60.166ZM565.547-63.7V-70.07c-1.232,1.415-9.508,2.239-12.6,2.594-5.68.707-10.744,2.359-10.744,7.665,0,4.832,4.2,7.309,10,7.309C560.855-52.5,565.547-58.043,565.547-63.7Z" fill="#ececec"/>
          <path id="Trazado_720" data-name="Trazado 720" d="M590.169-47.315h-7.288V-92.589h7.04v7.074h.616c2.224-4.6,6.672-7.664,13.832-7.664,9.6,0,16.055,5.541,16.055,17.1v28.768H613.14v-28.3c0-7.1-4.108-11.319-10.868-11.319-6.979,0-12.1,4.481-12.1,12.38Z" fill="#ececec"/>
          <path id="Trazado_721" data-name="Trazado 721" d="M628.247-69.834c0-14.266,8.276-23.345,20.255-23.345,9.264,0,12.1,5.424,13.708,7.782h.62v-22.284h7.284v60.366h-7.04V-54.27h-.864c-1.6,2.474-4.692,7.9-13.832,7.9C636.523-46.371,628.247-55.45,628.247-69.834Zm34.7-.118c0-10.14-4.692-16.978-13.584-16.978-9.263,0-13.831,7.428-13.831,16.978,0,9.667,4.692,17.331,13.831,17.331C658.134-52.621,662.95-59.695,662.95-69.952Z" fill="#ececec"/>
          <path id="Trazado_722" data-name="Trazado 722" d="M678.932-69.717c0-14.148,8.644-23.462,21.487-23.462s21.488,9.314,21.488,23.462c0,14.032-8.644,23.346-21.488,23.346S678.932-55.685,678.932-69.717Zm35.687,0c0-9.077-4.444-17.213-14.2-17.213s-14.2,8.136-14.2,17.213,4.447,17.1,14.2,17.1S714.619-60.638,714.619-69.717Z" fill="#ececec"/>
        </g>
        <path id="Trazado_723" data-name="Trazado 723" d="M305.81-47.207l-25.734-25.7a5.157,5.157,0,0,0,1.61.222,17.965,17.965,0,0,0,17.965-17.964,17.965,17.965,0,0,0-17.965-17.965c-5.6,0-11.129,2.581-12.816,7.295V-107.5h-6.576v60.3h7.288V-73.685l26.53,26.478ZM268.959-86.8a13.235,13.235,0,0,1-.479-3.54,13.235,13.235,0,0,1,.479-3.54,11.572,11.572,0,0,1,10.934-8.8c6.3,0,11.413,5.523,11.413,12.336S286.2-78,279.893-78A11.571,11.571,0,0,1,268.959-86.8Z" fill="#ececec"/>
      </g>
    </g>
  </g>
</svg>
