<?xml version="1.0" encoding="utf-8"?>
<!-- Generator: Adobe Illustrator 24.3.0, SVG Export Plug-In . SVG Version: 6.00 Build 0)  -->
<svg version="1.1" id="Layer_1" xmlns="http://www.w3.org/2000/svg" xmlns:xlink="http://www.w3.org/1999/xlink" x="0px" y="0px"
	 viewBox="0 0 125 57.7" style="enable-background:new 0 0 125 57.7;" xml:space="preserve">
<style type="text/css">
	.st0{fill:#ececec;}
</style>
<g>
	<path class="st0" d="M52.1,32.8l-4.4,11.6h-2.5l-4.4-11.6h2.7l3,8.4h0l3-8.4H52.1z"/>
	<path class="st0" d="M63,44.4h-8.3V32.8H63V35h-6v2.4h5.7v2.2H57v2.6h6L63,44.4z"/>
	<path class="st0" d="M68.7,44.4h-2.3V32.8h2.4l5.1,7.7v-7.7h2.3v11.6h-2.4l-5.1-7.7L68.7,44.4z"/>
	<path class="st0" d="M87.4,35h-3.2v9.3h-2.4V35h-3.2v-2.2h8.7V35z"/>
	<path class="st0" d="M87.8,44.4l4.4-11.6h2.5L99,44.4h-2.6l-0.7-2H91l-0.7,2H87.8z M93.4,35.7l-1.6,4.5H95L93.4,35.7L93.4,35.7z"/>
	<path class="st0" d="M103.8,44.4h-2.3V32.8h2.4l5.1,7.7v-7.7h2.3v11.6h-2.4l-5.1-7.7L103.8,44.4z"/>
	<path class="st0" d="M113.8,44.4l4.4-11.6h2.5l4.4,11.6h-2.6l-0.7-2H117l-0.7,2H113.8z M119.3,35.7l-1.6,4.5h3.2L119.3,35.7
		L119.3,35.7z"/>
	<path class="st0" d="M35.3,20.3L21.5,56.7h-7.7L0,20.3h8.4l9.3,26.4h0.1l9.3-26.4H35.3z"/>
	<path class="st0" d="M10.9,10c-1.7-0.1-3.1,1.2-3.2,2.8c0,0.1,0,0.1,0,0.2H0C0.3,6.2,4.2,1,11.6,1c5.7,0,8.7,3.4,12.9,3.4
		c1.6,0.1,3-1.2,3.1-2.8c0-0.1,0-0.2,0-0.2h7.7c-0.3,6.8-4.2,12-11.5,12C18.1,13.4,15,10,10.9,10z"/>
</g>
</svg>
