<svg xmlns="http://www.w3.org/2000/svg" width="157.728" height="40.711" viewBox="0 0 157.728 40.711"><g transform="translate(-91.307 -174.271)"><path d="M91.307,197.144l15.863.008-9.445,9.435,2.169,2.172,11.222-11.211-.007,13.35,3.07,0,.008-15.862,9.435,9.445,2.172-2.17-11.211-11.222,13.35.007,0-3.07-15.863-.008,9.445-9.435-2.17-2.172-11.222,11.211.007-13.35h-3.07l-.008,15.863-9.435-9.445-2.172,2.169,11.211,11.222-13.35-.007Zm17.772-8.691a4.028,4.028,0,1,1-3.471,4.518A4.029,4.029,0,0,1,109.079,188.453Z" transform="translate(0 0)" fill="#ecebeb"/><g transform="translate(133.742 196.201)"><g transform="translate(0 0.947)"><path d="M355.044,323.364h.128l3.33-10.448h3.223l-4.741,13.752h-3.747l-4.747-13.752h3.23Z" transform="translate(-348.49 -312.916)" fill="#ecebeb"/></g><path d="M435.839,309.6a1.551,1.551,0,1,1,1.544,1.45A1.5,1.5,0,0,1,435.839,309.6Zm.107,2.78h2.86v10.314h-2.86Z" transform="translate(-421.426 -307.993)" fill="#ecebeb"/><path d="M464.2,321.524c0-3.545,1.914-5.3,4.176-5.3a3.039,3.039,0,0,1,2.935,1.867h.087v-5.17h2.854v13.752h-2.82v-1.652h-.121a3.049,3.049,0,0,1-2.928,1.82C466.029,326.836,464.2,324.976,464.2,321.524Zm7.259-.013c0-1.84-.779-3.015-2.169-3.015-1.417,0-2.169,1.229-2.169,3.015s.766,3.049,2.169,3.049C470.662,324.559,471.455,323.351,471.455,321.511Z" transform="translate(-445.105 -311.969)" fill="#ecebeb"/><path d="M535.647,338.276c0-3.183,1.967-5.338,5-5.338,2.726,0,4.848,1.732,4.848,5.238v.786h-7.024v.007a2.242,2.242,0,0,0,2.337,2.484,1.942,1.942,0,0,0,1.981-1.2l2.646.175c-.4,1.914-2.122,3.156-4.673,3.156C537.588,343.588,535.647,341.546,535.647,338.276Zm7.158-1.088a2.033,2.033,0,0,0-2.108-2.115,2.178,2.178,0,0,0-2.222,2.115Z" transform="translate(-504.766 -328.688)" fill="#ecebeb"/><path d="M602.989,338.27c0-3.2,1.947-5.332,5.077-5.332s5.076,2.135,5.076,5.332c0,3.176-1.947,5.318-5.076,5.318S602.989,341.446,602.989,338.27Zm7.245-.02c0-1.8-.738-3.129-2.155-3.129-1.444,0-2.182,1.33-2.182,3.129s.739,3.122,2.182,3.122C609.5,341.372,610.234,340.049,610.234,338.249Z" transform="translate(-560.997 -328.688)" fill="#ecebeb"/><path d="M672.681,344.6l2.646-.356a2.043,2.043,0,0,0,2.135,1.175c1.242,0,2.149-.551,2.149-1.967V341.56h-.121a3,3,0,0,1-2.941,1.679c-2.323,0-4.183-1.6-4.183-5.029,0-3.512,1.914-5.271,4.177-5.271a3.059,3.059,0,0,1,2.948,1.867h.108v-1.732h2.84v10.415c0,2.639-2.1,3.982-5.043,3.982C674.614,347.469,673.023,346.22,672.681,344.6Zm6.943-6.4c0-1.806-.779-2.982-2.169-2.982-1.417,0-2.169,1.229-2.169,2.982,0,1.779.765,2.894,2.169,2.894C678.831,341.09,679.624,340.015,679.624,338.2Z" transform="translate(-618.926 -328.688)" fill="#ecebeb"/><path d="M746.1,333h2.773v1.8h.107a2.505,2.505,0,0,1,2.478-1.947,4.3,4.3,0,0,1,.9.1V335.5a4.814,4.814,0,0,0-1.209-.154,2.082,2.082,0,0,0-2.189,2.142v5.835H746.1Z" transform="translate(-680.492 -328.62)" fill="#ecebeb"/><path d="M787.11,340.506c0-2.3,1.833-2.988,3.875-3.176,1.793-.175,2.5-.262,2.5-.927v-.04c0-.846-.557-1.336-1.531-1.336a1.726,1.726,0,0,0-1.833,1.188L787.472,336c.4-1.88,2.021-3.062,4.492-3.062,2.3,0,4.378,1.034,4.378,3.492v6.956H793.63v-1.43h-.081a3.167,3.167,0,0,1-3.015,1.625C788.567,343.581,787.11,342.547,787.11,340.506Zm6.392-.806v-1.094a6.882,6.882,0,0,1-1.988.463c-1.007.141-1.672.537-1.672,1.343,0,.786.631,1.2,1.511,1.2A1.979,1.979,0,0,0,793.5,339.7Z" transform="translate(-714.738 -328.688)" fill="#ecebeb"/><path d="M856.788,315.24H854.74v8.165H851.88V315.24h-1.457v-2.149h1.457v-.745a3.1,3.1,0,0,1,3.384-3.337,7.536,7.536,0,0,1,2.021.282l-.5,2.149a3.171,3.171,0,0,0-.92-.148c-.839,0-1.121.41-1.121,1.108v.692h2.048Z" transform="translate(-767.604 -308.707)" fill="#ecebeb"/><path d="M898.435,311.563H901.3v10.314h-2.861Zm1.833-4.385h2.646l-2.048,3.055h-2.021Z" transform="translate(-807.695 -307.178)" fill="#ecebeb"/><path d="M925.53,340.506c0-2.3,1.833-2.988,3.875-3.176,1.793-.175,2.5-.262,2.5-.927v-.04c0-.846-.557-1.336-1.531-1.336a1.726,1.726,0,0,0-1.833,1.188L925.893,336c.4-1.88,2.021-3.062,4.492-3.062,2.3,0,4.378,1.034,4.378,3.492v6.956H932.05v-1.43h-.081a3.167,3.167,0,0,1-3.015,1.625C926.987,343.581,925.53,342.547,925.53,340.506Zm6.393-.806v-1.094a6.881,6.881,0,0,1-1.988.463c-1.007.141-1.672.537-1.672,1.343,0,.786.631,1.2,1.511,1.2A1.979,1.979,0,0,0,931.923,339.7Z" transform="translate(-830.319 -328.688)" fill="#ecebeb"/><path d="M997.461,336.175a1.611,1.611,0,0,0-1.726-1.209c-.886,0-1.585.4-1.578,1.021-.007.5.349.826,1.309,1.034l1.867.376c2,.41,2.975,1.3,2.981,2.793-.007,2.035-1.92,3.4-4.593,3.4-2.733,0-4.411-1.215-4.68-3.189l2.813-.148a1.677,1.677,0,0,0,1.874,1.276c1,0,1.665-.436,1.679-1.047-.014-.517-.423-.846-1.323-1.027L994.3,339.1c-2.014-.4-2.988-1.4-2.981-2.948-.006-1.988,1.733-3.21,4.371-3.21,2.605,0,4.136,1.175,4.392,3.075Z" transform="translate(-885.022 -328.688)" fill="#ecebeb"/></g><g transform="translate(134.066 177.076)"><path d="M410.852,217.76c0-3.122,1.847-5.359,4.519-5.359,2.236,0,4.365,1.618,4.365,5.063v.591h-7.682c.054,2.384,1.39,3.921,3.5,3.921a2.873,2.873,0,0,0,2.793-1.692l1.135.369a3.98,3.98,0,0,1-3.928,2.417C412.665,223.071,410.852,220.889,410.852,217.76Zm7.662-.759a3.244,3.244,0,0,0-3.142-3.512A3.474,3.474,0,0,0,412.061,217Z" transform="translate(-400.886 -208.915)" fill="#ecebeb"/><path d="M476.363,219.975c0-2.041,1.632-2.692,3.962-2.981,1.732-.215,2.7-.228,2.7-1.007v-.242a2.148,2.148,0,0,0-2.431-2.27,2.864,2.864,0,0,0-2.8,1.645l-1.135-.41a3.965,3.965,0,0,1,3.9-2.31c1.578,0,3.66.685,3.66,3.451v7h-1.2v-1.632h-.074a3.4,3.4,0,0,1-3.2,1.867A3.1,3.1,0,0,1,476.363,219.975Zm6.661-1.074V217.41a7.321,7.321,0,0,1-2.7.631c-1.746.215-2.766.739-2.766,1.988S478.565,222,479.915,222A3,3,0,0,0,483.024,218.9Z" transform="translate(-455.588 -208.915)" fill="#ecebeb"/><path d="M538.861,217.746c0-3.1,1.84-5.345,4.539-5.345a3.787,3.787,0,0,1,3.948,3.2H546.14a2.679,2.679,0,0,0-2.72-2.115c-1.981,0-3.357,1.719-3.357,4.217s1.336,4.271,3.357,4.271a2.651,2.651,0,0,0,2.726-2.129h1.209a3.767,3.767,0,0,1-3.935,3.223C540.647,223.071,538.861,220.821,538.861,217.746Z" transform="translate(-507.774 -208.915)" fill="#ecebeb"/><path d="M604.41,201.792h-2.182v6.58c0,1.3.745,1.679,1.558,1.679a2.456,2.456,0,0,0,.7-.094l.255,1.081a2.878,2.878,0,0,1-1.061.181,2.526,2.526,0,0,1-2.652-2.565v-6.862h-1.538v-1.041h1.538V198.28h1.2v2.471h2.182Z" transform="translate(-558.397 -197.124)" fill="#ecebeb"/><path d="M642.983,192.953a.9.9,0,1,1,.893.859A.882.882,0,0,1,642.983,192.953Zm.282,2.632h1.2V205.9h-1.2Z" transform="translate(-594.716 -191.959)" fill="#ecebeb"/><path d="M670.075,223.57H668.8l-3.767-10.314h1.3l3.062,8.736h.094l3.062-8.736h1.3Z" transform="translate(-613.127 -209.629)" fill="#ecebeb"/><path d="M726.351,219.975c0-2.041,1.632-2.692,3.962-2.981,1.732-.215,2.7-.228,2.7-1.007v-.242a2.149,2.149,0,0,0-2.431-2.27,2.864,2.864,0,0,0-2.8,1.645l-1.135-.41a3.965,3.965,0,0,1,3.9-2.31c1.578,0,3.66.685,3.66,3.451v7h-1.2v-1.632h-.074a3.4,3.4,0,0,1-3.2,1.867A3.1,3.1,0,0,1,726.351,219.975Zm6.661-1.074V217.41a7.322,7.322,0,0,1-2.7.631c-1.746.215-2.766.739-2.766,1.988S728.554,222,729.9,222A3,3,0,0,0,733.012,218.9Z" transform="translate(-664.328 -208.915)" fill="#ecebeb"/><path d="M793.26,222.89h-1.2V212.576h1.162v1.618h.107a3.123,3.123,0,0,1,3.035-1.752c2.082,0,3.5,1.323,3.5,3.767v6.681h-1.2v-6.607a2.5,2.5,0,0,0-2.605-2.746,2.7,2.7,0,0,0-2.807,2.907Z" transform="translate(-719.199 -208.949)" fill="#ecebeb"/><path d="M854.116,201.041c0-3.176,1.719-5.325,4.264-5.325a3.257,3.257,0,0,1,3.149,2.109h.107v-5.406h1.2v13.752H861.67v-1.914h-.141a3.31,3.31,0,0,1-3.169,2.129C855.828,206.386,854.116,204.244,854.116,201.041Zm7.541-.02c0-2.471-1.142-4.217-3.156-4.217-2.068,0-3.183,1.84-3.183,4.217,0,2.4,1.128,4.271,3.183,4.271C860.5,205.291,861.657,203.512,861.657,201.021Z" transform="translate(-771.012 -192.23)" fill="#ecebeb"/><path d="M923.248,217.746c0-3.163,1.867-5.345,4.539-5.345s4.539,2.182,4.539,5.345c0,3.143-1.867,5.325-4.539,5.325S923.248,220.889,923.248,217.746Zm7.877,0c0-2.31-1.2-4.257-3.337-4.257s-3.337,1.947-3.337,4.257,1.2,4.23,3.337,4.23S931.125,220.056,931.125,217.746Z" transform="translate(-828.737 -208.915)" fill="#ecebeb"/><path d="M354.042,199.36c.127.012.36.071.49.071a4.079,4.079,0,0,0,0-8.157,4.2,4.2,0,0,0-2.365.757,1.954,1.954,0,0,0-.65,1.056v-1.561h-1.063v3.827a3.162,3.162,0,0,1,.025-.446,4.126,4.126,0,0,0-.025.446v9.862h1.256v-6.489l6.372,6.489H360.1Zm-2.413-3.044a3.359,3.359,0,0,1,0-1.785,2.918,2.918,0,0,1,2.757-2.218,3.12,3.12,0,0,1,0,6.222A2.918,2.918,0,0,1,351.628,196.316Z" transform="translate(-350.453 -191.274)" fill="#ecebeb"/></g></g></svg>