<svg xmlns="http://www.w3.org/2000/svg" width="214.691" height="68.153" viewBox="0 0 214.691 68.153" fill="#ececec">
  <g id="Grupo_1047" data-name="Grupo 1047" transform="translate(-375.913 -2985.646)">
    <path id="Trazado_622" data-name="Trazado 622" d="M72.7,42.825V40.52H63.253V32.179h2.5V29.874h-2.56c-.6-6.116-5.913-10.992-12.551-11.5v-1.6h1.37V15.389h-1.37v-.6h1.37V12.486h-1.37V9.627h.636V8.244h-.636V6.6h1.37V4.3h-1.37V3.04H48.337V4.3h-1.37V6.6h1.37V8.244H47.7V9.627h.636v2.859h-1.37v2.305h1.37v.6h-1.37v1.383h1.37v1.6c-6.639.511-11.952,5.387-12.551,11.5h-2.56v2.305h2.5V40.52H26.276v2.305h3.481V44.7H26.276v2.305h3.481v1.875H26.276v2.305h3.481v17.7H26.276v2.305H72.7V68.888H69.246v-17.7H72.7V48.882H69.246V47.006H72.7V44.7H69.246V42.825ZM60.948,40.52H58.209V32.179h2.739ZM45.815,32.179V40.52H43.076V32.179Zm2.305,0h2.739V40.52H48.12Zm5.044,0H55.9V40.52H53.164ZM49.49,20.628c5.888,0,10.752,4.053,11.386,9.246H38.1C38.738,24.681,43.6,20.628,49.49,20.628ZM38.032,32.179h2.739V40.52H38.032Zm-5.97,19.008H34.2v17.7H32.062Zm30.152,0v17.7H60.072v-17.7Zm-4.448,17.7H53.7v-17.7h4.067Zm-6.372,0H47.329v-17.7H51.4Zm-6.371,0H40.958v-17.7h4.066Zm-6.371,0H36.51v-17.7h2.143Zm28.288,0H64.519v-17.7h2.421Zm0-20.006H32.062V47.006H66.941Zm0-4.18H32.062V42.825H66.941Z" transform="translate(349.637 2982.606)"/>
    <g id="Grupo_1043" data-name="Grupo 1043" transform="translate(-203.631 2538.234)">
      <path id="Trazado_625" data-name="Trazado 625" d="M651.038,471.412v3.062a6.288,6.288,0,0,0,.1,1.311,1.448,1.448,0,0,0,.908,1.064,2.719,2.719,0,0,0,.809.143v.2h-5.528v-.2a2.717,2.717,0,0,0,.809-.143,1.476,1.476,0,0,0,.541-.359,1.4,1.4,0,0,0,.372-.7,6.583,6.583,0,0,0,.1-1.315V468.1a6.572,6.572,0,0,0-.1-1.315,1.4,1.4,0,0,0-.372-.7,1.375,1.375,0,0,0-.545-.364,2.848,2.848,0,0,0-.8-.138v-.2h4.17q1.046,0,1.376.008a6.681,6.681,0,0,1,2.1.363,2.861,2.861,0,0,1,1.328,1.034,2.755,2.755,0,0,1,.471,1.6,2.627,2.627,0,0,1-1.021,2.163,2.959,2.959,0,0,1-.688.4,6.239,6.239,0,0,1-1.008.294,2.615,2.615,0,0,1,.77.45,2.009,2.009,0,0,1,.363.454q.164.272.493.965.771,1.583,1.164,2.314a7.21,7.21,0,0,0,.662,1.06,1.379,1.379,0,0,0,.42.372,1.585,1.585,0,0,0,.558.138v.2h-2.872q-.216-.476-.277-.606l-.605-1.375a21.976,21.976,0,0,0-1.1-2.189,4.481,4.481,0,0,0-1.012-1.289,1.5,1.5,0,0,0-.5-.246,2.493,2.493,0,0,0-.657-.074Zm0-.19h.329a6.83,6.83,0,0,0,1.536-.121,2.03,2.03,0,0,0,.869-.5,2.845,2.845,0,0,0,.909-2.146,3.16,3.16,0,0,0-.264-1.284,2.65,2.65,0,0,0-.731-.991,2.11,2.11,0,0,0-.865-.411,6.655,6.655,0,0,0-1.427-.117h-.355Z" transform="translate(-0.751 0)"/>
      <path id="Trazado_626" data-name="Trazado 626" d="M679.448,473.38l.1,2-.139.006a2.582,2.582,0,0,0-.26-.842,1.806,1.806,0,0,0-.527-.588,1.76,1.76,0,0,0-.672-.3,4.871,4.871,0,0,0-1.029-.088h-1.387V477.2h.363a3.51,3.51,0,0,0,.83-.073.926.926,0,0,0,.454-.26,1.105,1.105,0,0,0,.252-.415,3.613,3.613,0,0,0,.136-.705l.14.006L677.686,479h-.139a3.286,3.286,0,0,0-.161-.751,1.415,1.415,0,0,0-.294-.485,1.07,1.07,0,0,0-.472-.285,2.536,2.536,0,0,0-.739-.091h-.345v1.387q0,.829.042,1.208a1.985,1.985,0,0,0,.164.633,1.3,1.3,0,0,0,.627.639,2.564,2.564,0,0,0,1.111.2,3.467,3.467,0,0,0,1.217-.185,1.814,1.814,0,0,0,.8-.572,2.25,2.25,0,0,0,.354-.594,5.264,5.264,0,0,0,.251-.878l.139.006-.079,2.41h-7.225v-.14a1.946,1.946,0,0,0,.56-.1,1.017,1.017,0,0,0,.642-.748,4.394,4.394,0,0,0,.07-.917v-4.463a4.405,4.405,0,0,0-.07-.918,1.018,1.018,0,0,0-.257-.493.961.961,0,0,0-.378-.254,1.97,1.97,0,0,0-.566-.1v-.139Z" transform="translate(-15.018 -4.455)"/>
      <path id="Trazado_627" data-name="Trazado 627" d="M698.288,481.646h-3.979v-.14a1.829,1.829,0,0,0,.751-.182.735.735,0,0,0,.376-.654,1.9,1.9,0,0,0-.17-.666l-.1-.255-.581-1.429h-2.665l-.315.836-.151.375a3,3,0,0,0-.272,1.048.9.9,0,0,0,.1.418.874.874,0,0,0,.269.315,1.226,1.226,0,0,0,.605.194v.14H689.44v-.14a1.256,1.256,0,0,0,.563-.157,1.622,1.622,0,0,0,.472-.448,3.441,3.441,0,0,0,.379-.639q.185-.391.487-1.172l2.216-5.71h.345l2.634,6.365a10.071,10.071,0,0,0,.472,1.029,1.533,1.533,0,0,0,.382.466,1.062,1.062,0,0,0,.333.166,3.281,3.281,0,0,0,.563.1Zm-3.8-3.573-1.272-3.137-1.2,3.137Z" transform="translate(-24.211 -4.455)"/>
      <path id="Trazado_628" data-name="Trazado 628" d="M709.8,481.646V481.5a1.251,1.251,0,0,0,.945-.346,1.03,1.03,0,0,0,.257-.494,4.431,4.431,0,0,0,.07-.917v-4.463a4.308,4.308,0,0,0-.076-.948,1,1,0,0,0-.282-.5,1.07,1.07,0,0,0-.378-.23,1.876,1.876,0,0,0-.536-.085v-.139h3.87v.139a2.061,2.061,0,0,0-.545.091,1,1,0,0,0-.376.23,1.011,1.011,0,0,0-.279.5,4.406,4.406,0,0,0-.073.939v3.494q0,.805.042,1.2a1.939,1.939,0,0,0,.163.642,1.333,1.333,0,0,0,.63.639,2.547,2.547,0,0,0,1.108.2,3.383,3.383,0,0,0,1.214-.191,1.856,1.856,0,0,0,.808-.59,2.485,2.485,0,0,0,.348-.617,5.586,5.586,0,0,0,.252-.908l.145.012-.079,2.483Z" transform="translate(-35.551 -4.455)"/>
      <path id="Trazado_629" data-name="Trazado 629" d="M658.619,520.191h-5.684v-.2a2.608,2.608,0,0,0,1.072-.259,1.05,1.05,0,0,0,.536-.935,2.717,2.717,0,0,0-.242-.951l-.147-.364-.831-2.041h-3.807l-.45,1.194-.216.536a4.283,4.283,0,0,0-.389,1.5,1.284,1.284,0,0,0,.143.6,1.245,1.245,0,0,0,.385.45,1.745,1.745,0,0,0,.865.277v.2h-3.876v-.2a1.8,1.8,0,0,0,.8-.224,2.325,2.325,0,0,0,.675-.641,4.866,4.866,0,0,0,.541-.912q.264-.558.7-1.674l3.167-8.158h.493l3.763,9.092a14.335,14.335,0,0,0,.675,1.471,2.182,2.182,0,0,0,.545.666,1.546,1.546,0,0,0,.476.238,4.815,4.815,0,0,0,.8.143Zm-5.433-5.1-1.817-4.481-1.713,4.481Z" transform="translate(0 -23.954)"/>
      <path id="Trazado_630" data-name="Trazado 630" d="M682.581,516.071l.073,2.707h-.139c-.044-.117-.078-.206-.1-.266-.141-.387-.256-.677-.345-.866a3.052,3.052,0,0,0-.684-.933,2.247,2.247,0,0,0-.7-.466,2.19,2.19,0,0,0-.818-.145,2.293,2.293,0,0,0-1.187.3,2.99,2.99,0,0,0-.823.748,4.336,4.336,0,0,0-.624,1.111,5.428,5.428,0,0,0-.345,2,5.778,5.778,0,0,0,.236,1.714,3.437,3.437,0,0,0,.69,1.278,2.8,2.8,0,0,0,2.216.957,3.074,3.074,0,0,0,1.242-.24,1.956,1.956,0,0,0,.854-.675,3.461,3.461,0,0,0,.508-1.357l.14.024a3.24,3.24,0,0,1-.521,1.52,2.443,2.443,0,0,1-1.069.823,4.074,4.074,0,0,1-1.578.285,5.143,5.143,0,0,1-1.6-.248,3.515,3.515,0,0,1-1.9-1.445,4.444,4.444,0,0,1-.684-2.492,5.153,5.153,0,0,1,.4-2.044,3.777,3.777,0,0,1,1.114-1.5,4.319,4.319,0,0,1,1.317-.694,4.578,4.578,0,0,1,3.085.022l.5.163a.738.738,0,0,0,.254.054.3.3,0,0,0,.248-.127,1.258,1.258,0,0,0,.1-.2Z" transform="translate(-16.399 -28.142)"/>
      <path id="Trazado_631" data-name="Trazado 631" d="M701.423,524.646h-3.979v-.14a1.832,1.832,0,0,0,.751-.182.735.735,0,0,0,.375-.654A1.909,1.909,0,0,0,698.4,523l-.1-.255-.581-1.429h-2.665l-.315.836-.151.375a3,3,0,0,0-.272,1.048.9.9,0,0,0,.1.418.874.874,0,0,0,.269.315,1.225,1.225,0,0,0,.605.193v.14h-2.713v-.14a1.257,1.257,0,0,0,.563-.157,1.63,1.63,0,0,0,.472-.448,3.438,3.438,0,0,0,.379-.639q.185-.391.487-1.172l2.216-5.71h.345l2.635,6.365a9.972,9.972,0,0,0,.472,1.029,1.539,1.539,0,0,0,.381.466,1.069,1.069,0,0,0,.333.166,3.29,3.29,0,0,0,.563.1Zm-3.8-3.573-1.272-3.137-1.2,3.137Z" transform="translate(-25.957 -28.409)"/>
      <path id="Trazado_632" data-name="Trazado 632" d="M712.933,524.506a1.928,1.928,0,0,0,.563-.1,1.021,1.021,0,0,0,.639-.748,4.4,4.4,0,0,0,.07-.917v-4.463a4.179,4.179,0,0,0-.082-.975.977.977,0,0,0-.318-.508,1.449,1.449,0,0,0-.872-.279v-.139h3.331q1.108,0,1.411.024a4.228,4.228,0,0,1,2.168.727,4.054,4.054,0,0,1,1.32,1.571,4.777,4.777,0,0,1,.472,2.117,4.589,4.589,0,0,1-.269,1.577,3.4,3.4,0,0,1-.748,1.233,3.063,3.063,0,0,1-1.677.878,8.411,8.411,0,0,1-1.532.14h-4.475Zm2.6-7.939v6.02a4.591,4.591,0,0,0,.066.9,1.206,1.206,0,0,0,.248.527,1.538,1.538,0,0,0,1.26.472,3.015,3.015,0,0,0,1.274-.245,2.537,2.537,0,0,0,.948-.8,3.858,3.858,0,0,0,.627-1.221,4.876,4.876,0,0,0,.215-1.462,5.109,5.109,0,0,0-.26-1.635,4.172,4.172,0,0,0-.745-1.357,3.172,3.172,0,0,0-1.6-1.066,5.011,5.011,0,0,0-1.3-.14Z" transform="translate(-37.298 -28.409)"/>
      <path id="Trazado_633" data-name="Trazado 633" d="M741.058,516.38l.1,2-.14.006a2.57,2.57,0,0,0-.26-.842,1.8,1.8,0,0,0-.527-.588,1.767,1.767,0,0,0-.672-.3,4.872,4.872,0,0,0-1.029-.088h-1.387V520.2h.363a3.5,3.5,0,0,0,.83-.073.928.928,0,0,0,.454-.26,1.1,1.1,0,0,0,.251-.416,3.608,3.608,0,0,0,.136-.705l.139.006L739.3,522h-.14a3.308,3.308,0,0,0-.16-.751,1.42,1.42,0,0,0-.294-.485,1.072,1.072,0,0,0-.473-.285,2.529,2.529,0,0,0-.739-.091h-.345v1.387a12.082,12.082,0,0,0,.042,1.208,1.976,1.976,0,0,0,.163.633,1.3,1.3,0,0,0,.627.639,2.568,2.568,0,0,0,1.111.2,3.466,3.466,0,0,0,1.217-.185,1.814,1.814,0,0,0,.8-.572,2.239,2.239,0,0,0,.354-.594,5.251,5.251,0,0,0,.252-.878l.139.006-.079,2.41h-7.224v-.14a1.941,1.941,0,0,0,.56-.1,1.019,1.019,0,0,0,.385-.254,1.03,1.03,0,0,0,.257-.494,4.43,4.43,0,0,0,.07-.917v-4.463a4.443,4.443,0,0,0-.07-.918,1.025,1.025,0,0,0-.257-.493.963.963,0,0,0-.379-.254,1.971,1.971,0,0,0-.566-.1v-.139Z" transform="translate(-49.339 -28.409)"/>
      <path id="Trazado_634" data-name="Trazado 634" d="M762.451,516.519a1.985,1.985,0,0,0-.554.094,1.057,1.057,0,0,0-.385.252.871.871,0,0,0-.2.281,1.345,1.345,0,0,0-.091.391,5.741,5.741,0,0,0-.043.745v4.463a4.331,4.331,0,0,0,.073.927.975.975,0,0,0,.26.484,1.405,1.405,0,0,0,.939.351v.14h-3.869v-.14a1.9,1.9,0,0,0,.566-.1,1.084,1.084,0,0,0,.385-.251,1.031,1.031,0,0,0,.257-.494,4.434,4.434,0,0,0,.07-.917v-5.414l-3.119,7.315h-.127l-3.1-7.207v5.305a4.436,4.436,0,0,0,.07.92,1.019,1.019,0,0,0,.642.745,1.942,1.942,0,0,0,.56.1v.14h-2.792v-.14a1.943,1.943,0,0,0,.56-.1,1.016,1.016,0,0,0,.642-.748,4.4,4.4,0,0,0,.07-.917v-4.463q0-.279-.018-.527a1.725,1.725,0,0,0-.139-.654.972.972,0,0,0-.415-.422,1.741,1.741,0,0,0-.7-.16v-.139h2.628l2.622,6.474,2.719-6.474h2.489Z" transform="translate(-59.057 -28.409)"/>
      <path id="Trazado_635" data-name="Trazado 635" d="M780.828,516.38v.139a1.95,1.95,0,0,0-.56.1,1,1,0,0,0-.384.254,1.134,1.134,0,0,0-.291.672,6.708,6.708,0,0,0-.036.739v4.463a5.014,5.014,0,0,0,.049.793,1.287,1.287,0,0,0,.157.466.979.979,0,0,0,.406.36,1.8,1.8,0,0,0,.66.143v.14h-3.87v-.14a1.9,1.9,0,0,0,.566-.1,1.028,1.028,0,0,0,.379-.251.982.982,0,0,0,.26-.49,4.611,4.611,0,0,0,.066-.92v-4.463a4.609,4.609,0,0,0-.066-.921.978.978,0,0,0-.26-.49.954.954,0,0,0-.382-.254,1.985,1.985,0,0,0-.563-.1v-.139Z" transform="translate(-72.964 -28.409)"/>
      <path id="Trazado_636" data-name="Trazado 636" d="M794.938,524.646H790.96v-.14a1.827,1.827,0,0,0,.751-.182.734.734,0,0,0,.376-.654,1.9,1.9,0,0,0-.17-.666l-.1-.255-.582-1.429h-2.664l-.315.836-.152.375a3,3,0,0,0-.272,1.048.9.9,0,0,0,.1.418.878.878,0,0,0,.27.315,1.223,1.223,0,0,0,.606.193v.14h-2.713v-.14a1.255,1.255,0,0,0,.563-.157,1.624,1.624,0,0,0,.473-.448,3.412,3.412,0,0,0,.378-.639q.185-.391.488-1.172l2.216-5.71h.345l2.634,6.365a10.029,10.029,0,0,0,.473,1.029,1.527,1.527,0,0,0,.381.466,1.069,1.069,0,0,0,.333.166,3.284,3.284,0,0,0,.563.1Zm-3.8-3.573-1.272-3.137-1.2,3.137Z" transform="translate(-78.052 -28.409)"/>
      <path id="Trazado_637" data-name="Trazado 637" d="M816.448,524.506a1.931,1.931,0,0,0,.563-.1,1.021,1.021,0,0,0,.639-.748,4.4,4.4,0,0,0,.07-.917v-4.463a4.184,4.184,0,0,0-.081-.975.98.98,0,0,0-.318-.508,1.451,1.451,0,0,0-.872-.279v-.139h3.331q1.108,0,1.411.024a4.23,4.23,0,0,1,2.168.727,4.058,4.058,0,0,1,1.32,1.571,4.777,4.777,0,0,1,.473,2.117,4.578,4.578,0,0,1-.27,1.577,3.39,3.39,0,0,1-.748,1.233,3.066,3.066,0,0,1-1.677.878,8.41,8.41,0,0,1-1.532.14h-4.475Zm2.6-7.939v6.02a4.551,4.551,0,0,0,.067.9,1.2,1.2,0,0,0,.248.527,1.539,1.539,0,0,0,1.26.472,3.019,3.019,0,0,0,1.275-.245,2.537,2.537,0,0,0,.948-.8,3.858,3.858,0,0,0,.627-1.221,4.878,4.878,0,0,0,.215-1.462,5.1,5.1,0,0,0-.26-1.635,4.163,4.163,0,0,0-.745-1.357,3.172,3.172,0,0,0-1.6-1.066,5.014,5.014,0,0,0-1.3-.14Z" transform="translate(-94.963 -28.409)"/>
      <path id="Trazado_638" data-name="Trazado 638" d="M844.573,516.38l.1,2-.139.006a2.582,2.582,0,0,0-.26-.842,1.8,1.8,0,0,0-.527-.588,1.761,1.761,0,0,0-.672-.3,4.876,4.876,0,0,0-1.029-.088h-1.387V520.2h.363a3.5,3.5,0,0,0,.83-.073.924.924,0,0,0,.454-.26,1.1,1.1,0,0,0,.252-.416,3.623,3.623,0,0,0,.136-.705l.139.006L842.811,522h-.139a3.292,3.292,0,0,0-.161-.751,1.415,1.415,0,0,0-.294-.485,1.07,1.07,0,0,0-.472-.285,2.531,2.531,0,0,0-.739-.091h-.345v1.387q0,.829.042,1.208a1.983,1.983,0,0,0,.164.633,1.3,1.3,0,0,0,.627.639,2.564,2.564,0,0,0,1.111.2,3.465,3.465,0,0,0,1.217-.185,1.816,1.816,0,0,0,.8-.572,2.246,2.246,0,0,0,.354-.594,5.254,5.254,0,0,0,.251-.878l.139.006-.079,2.41h-7.225v-.14a1.943,1.943,0,0,0,.56-.1,1.016,1.016,0,0,0,.642-.748,4.394,4.394,0,0,0,.07-.917v-4.463a4.407,4.407,0,0,0-.07-.918,1.019,1.019,0,0,0-.257-.493.96.96,0,0,0-.378-.254,1.971,1.971,0,0,0-.566-.1v-.139Z" transform="translate(-107.004 -28.409)"/>
      <path id="Trazado_639" data-name="Trazado 639" d="M875.1,508.382l.147,2.855-.2.008a3.688,3.688,0,0,0-.372-1.2,2.582,2.582,0,0,0-.753-.839,2.521,2.521,0,0,0-.96-.428,6.906,6.906,0,0,0-1.471-.125h-1.981v5.191h.519a5.013,5.013,0,0,0,1.185-.1,1.324,1.324,0,0,0,.649-.372,1.579,1.579,0,0,0,.359-.593,5.165,5.165,0,0,0,.194-1.008l.2.009-.035,4.637h-.2a4.734,4.734,0,0,0-.229-1.073,2.03,2.03,0,0,0-.42-.692,1.523,1.523,0,0,0-.674-.407,3.609,3.609,0,0,0-1.055-.13h-.493v1.981q0,1.185.061,1.726a2.824,2.824,0,0,0,.233.9,1.862,1.862,0,0,0,.9.913,3.692,3.692,0,0,0,1.587.29,4.983,4.983,0,0,0,1.739-.264,2.6,2.6,0,0,0,1.142-.818,3.2,3.2,0,0,0,.506-.848,7.485,7.485,0,0,0,.359-1.254l.2.008-.113,3.443H865.8v-.2a2.813,2.813,0,0,0,.8-.138,1.453,1.453,0,0,0,.917-1.068,6.325,6.325,0,0,0,.1-1.311V511.1a6.325,6.325,0,0,0-.1-1.311,1.467,1.467,0,0,0-.368-.7,1.38,1.38,0,0,0-.541-.364,2.821,2.821,0,0,0-.809-.138v-.2Z" transform="translate(-122.453 -23.954)"/>
      <path id="Trazado_640" data-name="Trazado 640" d="M891.1,524.355l.018-2.5.139.006a5.432,5.432,0,0,0,.605,1.5,1.938,1.938,0,0,0,1.659,1.015,1.541,1.541,0,0,0,1.151-.466,1.623,1.623,0,0,0,.454-1.181,2.111,2.111,0,0,0-.1-.63,1.849,1.849,0,0,0-.27-.551,2.037,2.037,0,0,0-.493-.454,9.173,9.173,0,0,0-.972-.552,9.546,9.546,0,0,1-.881-.49,2.572,2.572,0,0,1-.494-.406,1.98,1.98,0,0,1-.52-1.387,2.4,2.4,0,0,1,.2-.969,2.323,2.323,0,0,1,.566-.8,2.162,2.162,0,0,1,1.52-.594,2.291,2.291,0,0,1,.527.057,4.536,4.536,0,0,1,.648.228c.2.08.339.132.412.154a.659.659,0,0,0,.194.034q.212,0,.285-.309h.139l.043,2.4h-.14q-.163-.575-.281-.881a3.294,3.294,0,0,0-.281-.566,2.183,2.183,0,0,0-.653-.7,1.5,1.5,0,0,0-.822-.226,1.33,1.33,0,0,0-1.07.46,1.4,1.4,0,0,0-.257.443,1.452,1.452,0,0,0-.094.509q0,1.012,1.3,1.63l.853.412a3.837,3.837,0,0,1,1.421,1.031,2.3,2.3,0,0,1,.5,1.467,2.6,2.6,0,0,1-.224,1.063,2.361,2.361,0,0,1-.945,1.09,2.793,2.793,0,0,1-1.483.384,3.775,3.775,0,0,1-1.5-.309q-.375-.164-.448-.188a.509.509,0,0,0-.164-.024.4.4,0,0,0-.4.291Z" transform="translate(-136.549 -28.142)"/>
      <path id="Trazado_641" data-name="Trazado 641" d="M907.507,520.571v2.174a4.394,4.394,0,0,0,.07.917,1.013,1.013,0,0,0,.636.745,1.9,1.9,0,0,0,.567.1v.14h-3.87v-.14a1.9,1.9,0,0,0,.566-.1,1.026,1.026,0,0,0,.379-.251.981.981,0,0,0,.26-.49,4.609,4.609,0,0,0,.067-.92v-4.463a5.421,5.421,0,0,0-.045-.8,1.239,1.239,0,0,0-.155-.457.993.993,0,0,0-.4-.361,1.694,1.694,0,0,0-.63-.142h-.042v-.139h3.652a7.411,7.411,0,0,1,1.411.1,2.041,2.041,0,0,1,.83.388,2.082,2.082,0,0,1,.86,1.744,1.748,1.748,0,0,1-.872,1.623,2.59,2.59,0,0,1-1.1.321q-.205.019-.993.019Zm0-.194h.594a3.7,3.7,0,0,0,.924-.088,1.358,1.358,0,0,0,.578-.324,1.845,1.845,0,0,0,.594-1.435,2.35,2.35,0,0,0-.173-.912,1.688,1.688,0,0,0-.494-.675,1.6,1.6,0,0,0-.878-.363q-.14-.013-.636-.012h-.509Z" transform="translate(-144.241 -28.409)"/>
      <path id="Trazado_642" data-name="Trazado 642" d="M929,524.646h-3.979v-.14a1.832,1.832,0,0,0,.751-.182.735.735,0,0,0,.375-.654,1.9,1.9,0,0,0-.169-.666l-.1-.255-.581-1.429H922.63l-.315.836-.151.375a3,3,0,0,0-.272,1.048.9.9,0,0,0,.1.418.873.873,0,0,0,.269.315,1.226,1.226,0,0,0,.605.193v.14h-2.713v-.14a1.255,1.255,0,0,0,.563-.157,1.624,1.624,0,0,0,.472-.448,3.441,3.441,0,0,0,.379-.639q.185-.391.487-1.172l2.216-5.71h.345l2.635,6.365a10.052,10.052,0,0,0,.472,1.029,1.538,1.538,0,0,0,.381.466,1.068,1.068,0,0,0,.333.166,3.288,3.288,0,0,0,.563.1Zm-3.8-3.573-1.272-3.137-1.2,3.137Z" transform="translate(-152.733 -28.409)"/>
      <path id="Trazado_643" data-name="Trazado 643" d="M942.031,514.612v5.269a4.4,4.4,0,0,0,.07.92,1.019,1.019,0,0,0,.642.745,1.943,1.943,0,0,0,.56.1v.14h-2.791v-.14a1.944,1.944,0,0,0,.56-.1,1.02,1.02,0,0,0,.385-.254,1.03,1.03,0,0,0,.257-.494,4.436,4.436,0,0,0,.069-.917v-4.469a4.405,4.405,0,0,0-.069-.912,1.025,1.025,0,0,0-.257-.493.965.965,0,0,0-.379-.254,1.967,1.967,0,0,0-.566-.1v-.139h2.331l4.917,6.274v-4.372a4.434,4.434,0,0,0-.07-.921,1.025,1.025,0,0,0-.257-.49,1.011,1.011,0,0,0-.385-.254,1.953,1.953,0,0,0-.56-.1v-.139h2.792v.139a1.251,1.251,0,0,0-.945.351,1.022,1.022,0,0,0-.257.493,4.369,4.369,0,0,0-.07.912v6.371h-.273Zm4.106-3.258h.139a1.537,1.537,0,0,1,.018.194.875.875,0,0,1-.218.614.719.719,0,0,1-.557.24,1.348,1.348,0,0,1-.46-.076,5.549,5.549,0,0,1-.672-.323.912.912,0,0,0-.406-.133.4.4,0,0,0-.442.4H943.4c0-.057-.006-.1-.006-.133a.994.994,0,0,1,.2-.654.662.662,0,0,1,.539-.242,1.538,1.538,0,0,1,.7.194l.279.146a1.362,1.362,0,0,0,.6.187.388.388,0,0,0,.276-.088A.639.639,0,0,0,946.137,511.354Z" transform="translate(-164.074 -25.545)"/>
      <path id="Trazado_644" data-name="Trazado 644" d="M969.565,524.646h-3.978v-.14a1.83,1.83,0,0,0,.751-.182.735.735,0,0,0,.376-.654,1.9,1.9,0,0,0-.17-.666l-.1-.255-.582-1.429h-2.664l-.315.836-.151.375a3,3,0,0,0-.272,1.048.9.9,0,0,0,.1.418.879.879,0,0,0,.27.315,1.223,1.223,0,0,0,.606.193v.14h-2.713v-.14a1.255,1.255,0,0,0,.563-.157,1.624,1.624,0,0,0,.473-.448,3.422,3.422,0,0,0,.378-.639q.185-.391.488-1.172l2.216-5.71h.345l2.634,6.365a9.976,9.976,0,0,0,.473,1.029,1.527,1.527,0,0,0,.381.466,1.07,1.07,0,0,0,.333.166,3.283,3.283,0,0,0,.563.1Zm-3.8-3.573-1.272-3.137-1.2,3.137Z" transform="translate(-175.331 -28.409)"/>
      <path id="Trazado_645" data-name="Trazado 645" d="M653.55,559.38l.1,2-.139.006a2.573,2.573,0,0,0-.26-.842,1.806,1.806,0,0,0-.527-.588,1.766,1.766,0,0,0-.672-.3,4.868,4.868,0,0,0-1.029-.088h-1.387V563.2H650a3.509,3.509,0,0,0,.83-.073.926.926,0,0,0,.454-.26,1.1,1.1,0,0,0,.251-.415,3.612,3.612,0,0,0,.136-.705l.139.006L651.788,565h-.14a3.3,3.3,0,0,0-.16-.751,1.42,1.42,0,0,0-.294-.485,1.069,1.069,0,0,0-.472-.285,2.536,2.536,0,0,0-.739-.091h-.346v1.387q0,.829.043,1.208a1.972,1.972,0,0,0,.163.633,1.3,1.3,0,0,0,.627.639,2.569,2.569,0,0,0,1.111.2,3.466,3.466,0,0,0,1.217-.185,1.817,1.817,0,0,0,.8-.572,2.244,2.244,0,0,0,.354-.594,5.193,5.193,0,0,0,.252-.878l.139.006-.078,2.41H647.04v-.139a1.949,1.949,0,0,0,.56-.1,1.017,1.017,0,0,0,.642-.748,4.431,4.431,0,0,0,.07-.917v-4.463a4.442,4.442,0,0,0-.07-.918,1.025,1.025,0,0,0-.257-.493.959.959,0,0,0-.379-.254,1.971,1.971,0,0,0-.566-.1v-.139Z" transform="translate(-0.591 -52.363)"/>
      <path id="Trazado_646" data-name="Trazado 646" d="M666.005,560.476v5.269a4.425,4.425,0,0,0,.07.92,1.019,1.019,0,0,0,.642.745,1.953,1.953,0,0,0,.56.1v.139h-2.792v-.139a1.947,1.947,0,0,0,.56-.1,1.017,1.017,0,0,0,.642-.748,4.4,4.4,0,0,0,.07-.917v-4.469a4.37,4.37,0,0,0-.07-.912,1.022,1.022,0,0,0-.257-.493.961.961,0,0,0-.378-.254,1.973,1.973,0,0,0-.567-.1v-.139h2.332l4.917,6.274v-4.372a4.393,4.393,0,0,0-.07-.921,1.02,1.02,0,0,0-.642-.745,1.95,1.95,0,0,0-.56-.1v-.139h2.792v.139a1.252,1.252,0,0,0-.945.351,1.025,1.025,0,0,0-.257.493,4.4,4.4,0,0,0-.07.912v6.371h-.272Z" transform="translate(-10.309 -52.363)"/>
      <path id="Trazado_647" data-name="Trazado 647" d="M699.634,557.412v3.062a6.324,6.324,0,0,0,.1,1.311,1.448,1.448,0,0,0,.909,1.064,2.717,2.717,0,0,0,.809.143v.2h-5.528v-.2a2.717,2.717,0,0,0,.809-.143,1.476,1.476,0,0,0,.541-.359,1.4,1.4,0,0,0,.372-.7,6.581,6.581,0,0,0,.095-1.315V554.1a6.569,6.569,0,0,0-.095-1.315,1.4,1.4,0,0,0-.372-.7,1.372,1.372,0,0,0-.545-.364,2.844,2.844,0,0,0-.8-.138v-.2h4.17q1.046,0,1.375.008a6.672,6.672,0,0,1,2.1.363,2.86,2.86,0,0,1,1.328,1.034,2.758,2.758,0,0,1,.471,1.6,2.627,2.627,0,0,1-1.021,2.163,2.947,2.947,0,0,1-.687.4,6.256,6.256,0,0,1-1.008.294,2.61,2.61,0,0,1,.77.45,2.01,2.01,0,0,1,.364.454q.164.272.493.965.77,1.583,1.164,2.314a7.21,7.21,0,0,0,.662,1.06,1.379,1.379,0,0,0,.419.372,1.59,1.59,0,0,0,.558.138v.2h-2.872q-.216-.476-.277-.606l-.605-1.375a22.047,22.047,0,0,0-1.1-2.188,4.488,4.488,0,0,0-1.012-1.289,1.51,1.51,0,0,0-.5-.246,2.493,2.493,0,0,0-.657-.074Zm0-.19h.329a6.828,6.828,0,0,0,1.536-.121,2.032,2.032,0,0,0,.869-.5,2.844,2.844,0,0,0,.908-2.146,3.159,3.159,0,0,0-.264-1.285,2.656,2.656,0,0,0-.731-.991,2.109,2.109,0,0,0-.865-.411,6.661,6.661,0,0,0-1.427-.117h-.355Z" transform="translate(-27.822 -47.908)"/>
      <path id="Trazado_648" data-name="Trazado 648" d="M722.177,563.3a4.155,4.155,0,0,1,.436-1.888,4.424,4.424,0,0,1,1.272-1.518,4.922,4.922,0,0,1,1.344-.736,4.289,4.289,0,0,1,1.454-.257,4.2,4.2,0,0,1,1.8.409,4.638,4.638,0,0,1,1.526,1.154,4.058,4.058,0,0,1,1.066,2.757,4.13,4.13,0,0,1-.278,1.5,4.254,4.254,0,0,1-.812,1.315,4.575,4.575,0,0,1-1.547,1.145,4.5,4.5,0,0,1-3.709.012,4.4,4.4,0,0,1-1.514-1.115,4.029,4.029,0,0,1-.772-1.281A4.223,4.223,0,0,1,722.177,563.3Zm1.465.091a4.616,4.616,0,0,0,.957,2.964,2.84,2.84,0,0,0,.911.785,2.416,2.416,0,0,0,1.111.245,2.455,2.455,0,0,0,1.117-.242,2.844,2.844,0,0,0,.918-.788,4.671,4.671,0,0,0,.957-2.988,6.33,6.33,0,0,0-.264-1.845,4.419,4.419,0,0,0-.742-1.475,2.446,2.446,0,0,0-.863-.724,2.883,2.883,0,0,0-2.234,0,2.516,2.516,0,0,0-.869.727,4.317,4.317,0,0,0-.739,1.473A6.532,6.532,0,0,0,723.642,563.391Z" transform="translate(-42.447 -52.096)"/>
      <path id="Trazado_649" data-name="Trazado 649" d="M754.7,559.519a1.98,1.98,0,0,0-.554.093,1.058,1.058,0,0,0-.385.252.872.872,0,0,0-.2.281,1.349,1.349,0,0,0-.091.391,5.742,5.742,0,0,0-.042.745v4.463a4.332,4.332,0,0,0,.073.927.975.975,0,0,0,.26.484,1.405,1.405,0,0,0,.939.351v.139h-3.869v-.139a1.9,1.9,0,0,0,.566-.1,1.085,1.085,0,0,0,.385-.251,1.031,1.031,0,0,0,.257-.494,4.436,4.436,0,0,0,.07-.917v-5.414l-3.119,7.315h-.127l-3.1-7.206v5.305a4.435,4.435,0,0,0,.07.92,1.02,1.02,0,0,0,.642.745,1.947,1.947,0,0,0,.56.1v.139h-2.792v-.139a1.947,1.947,0,0,0,.56-.1,1.017,1.017,0,0,0,.642-.748,4.4,4.4,0,0,0,.07-.917v-4.463c0-.186-.006-.362-.018-.527a1.723,1.723,0,0,0-.139-.654.972.972,0,0,0-.415-.422,1.742,1.742,0,0,0-.7-.16v-.139h2.628l2.622,6.474,2.719-6.474H754.7Z" transform="translate(-54.74 -52.363)"/>
      <path id="Trazado_650" data-name="Trazado 650" d="M777.112,567.646h-3.978v-.139a1.83,1.83,0,0,0,.751-.182.734.734,0,0,0,.376-.654,1.9,1.9,0,0,0-.17-.666l-.1-.255-.582-1.429h-2.665l-.315.836-.151.375A3,3,0,0,0,770,566.58a.9.9,0,0,0,.1.418.878.878,0,0,0,.269.315,1.227,1.227,0,0,0,.606.194v.139h-2.713v-.139a1.256,1.256,0,0,0,.563-.157,1.629,1.629,0,0,0,.473-.448,3.417,3.417,0,0,0,.378-.639q.185-.391.488-1.172l2.216-5.71h.345l2.634,6.365a10.044,10.044,0,0,0,.472,1.029,1.537,1.537,0,0,0,.382.466,1.074,1.074,0,0,0,.333.166,3.283,3.283,0,0,0,.563.1Zm-3.8-3.573-1.272-3.137-1.2,3.137Z" transform="translate(-68.122 -52.363)"/>
    </g>
  </g>
</svg>
